# Placa 2 x 1 m con 2 cuadrilateros Q8 (8 nodos por elemento)
# Orden: vertices 1-4 antihorarios, luego medios de 1-2, 2-3, 3-4, 4-1
# n_nodes n_elements n_materials dim
13 2 1 2

# node_number x y
1 0.0 0.0
2 1.0 0.0
3 2.0 0.0
4 0.0 1.0
5 1.0 1.0
6 2.0 1.0
7 0.5 0.0
8 1.5 0.0
9 0.5 1.0
10 1.5 1.0
11 0.0 0.5
12 1.0 0.5
13 2.0 0.5

# material_id type E nu rho thickness
1 LINEAR_ELASTIC 21.0e9 0.25 2400.0 1.0

# element_number family order material_id connectivity
1 QUAD 2 1 1 2 5 4 7 12 9 11
2 QUAD 2 1 2 3 6 5 8 13 10 12
